<svg version="1.1" id="Layer_1" xmlns="http://www.w3.org/2000/svg" xmlns:xlink="http://www.w3.org/1999/xlink" x="0px" y="0px"
	 width="100%" viewBox="0 0 451 449" enable-background="new 0 0 451 449" xml:space="preserve">
<path fill="#22A7F0" opacity="1.000000" stroke="none" 
	d="
M452.000000,203.000000 
	C452.000000,285.260834 452.000000,367.521637 452.000000,450.000000 
	C368.979218,450.000000 285.958282,450.000000 202.267578,449.632141 
	C196.416809,448.514221 191.229187,447.806763 186.055939,447.006378 
	C168.220276,444.246948 151.169937,438.779175 134.820496,431.295502 
	C116.926231,423.104736 100.096397,413.181793 84.813118,400.549927 
	C70.748650,388.925476 58.055397,376.144043 46.906258,361.728363 
	C35.130821,346.502808 25.503309,330.021576 18.147093,312.291809 
	C11.581554,296.467712 6.440901,280.160919 3.962859,263.111420 
	C3.130567,257.385040 1.996266,251.702545 1.000001,246.000000 
	C1.000000,164.405853 1.000000,82.811699 1.000000,1.000000 
	C83.354103,1.000000 165.708389,1.000000 248.736328,1.370049 
	C268.243561,3.215428 286.380676,7.579621 304.203522,13.869231 
	C332.729218,23.935833 357.721313,39.740379 380.094849,59.749371 
	C393.262726,71.525627 404.982971,84.845581 414.247528,99.907730 
	C421.927429,112.393517 428.815338,125.438263 435.115112,138.682022 
	C442.210693,153.598831 446.432709,169.542755 449.025330,185.885300 
	C449.932495,191.603577 451.003693,197.295853 452.000000,203.000000 
M265.028564,192.258438 
	C265.948700,190.735107 266.699982,189.074036 267.813751,187.708633 
	C295.195862,154.139679 322.617493,120.602974 350.026550,87.055984 
	C351.238708,85.572372 352.398438,84.045921 353.968231,82.048775 
	C352.372894,81.836823 351.592743,81.643013 350.812469,81.642555 
	C323.648987,81.626549 296.484894,81.554855 269.323242,81.776276 
	C267.269867,81.793015 264.721405,83.463615 263.266266,85.122543 
	C241.400757,110.050987 219.680405,135.106750 197.925323,160.132065 
	C196.895233,161.316986 195.859589,162.497055 194.826553,163.679398 
	C194.426376,163.511414 194.026215,163.343414 193.626038,163.175415 
	C193.626038,136.388138 193.626038,109.600838 193.626038,82.050468 
	C192.292374,83.099640 191.740128,83.457550 191.278442,83.908234 
	C166.237289,108.352478 141.171310,132.771606 116.254242,157.341751 
	C114.837807,158.738464 113.985741,161.377472 113.982285,163.440125 
	C113.866730,232.598526 113.884377,301.757141 113.903587,370.915710 
	C113.903915,372.119110 114.160637,373.322449 114.367920,375.142029 
	C115.745796,373.573822 116.647614,372.609619 117.481247,371.589691 
	C146.055954,336.628540 174.619278,301.658051 203.211716,266.711456 
	C204.343521,265.328125 205.744003,264.164612 207.303284,263.548126 
	C226.064346,299.573669 244.869186,335.576569 263.511597,371.663361 
	C265.183319,374.899384 267.006165,376.149841 270.724731,376.125122 
	C296.887543,375.950989 323.052094,376.032715 349.216064,376.032715 
	C350.670898,376.032715 352.125763,376.032715 354.255859,376.032715 
	C353.284943,373.814087 352.631256,372.164520 351.856903,370.573700 
	C330.366364,326.424683 308.885773,282.270752 287.350403,238.143600 
	C279.986115,223.053757 272.479279,208.033463 265.028564,192.258438 
z"/>

<path fill="#FEFFFF" opacity="1.000000" stroke="none" 
	d="
M207.019287,262.898682 
	C205.744003,264.164612 204.343521,265.328125 203.211716,266.711456 
	C174.619278,301.658051 146.055954,336.628540 117.481247,371.589691 
	C116.647614,372.609619 115.745796,373.573822 114.367920,375.142029 
	C114.160637,373.322449 113.903915,372.119110 113.903587,370.915710 
	C113.884377,301.757141 113.866730,232.598526 113.982285,163.440125 
	C113.985741,161.377472 114.837807,158.738464 116.254242,157.341751 
	C141.171310,132.771606 166.237289,108.352478 191.278442,83.908234 
	C191.740128,83.457550 192.292374,83.099640 193.626038,82.050468 
	C193.626038,109.600838 193.626038,136.388138 193.626038,163.175415 
	C194.026215,163.343414 194.426376,163.511414 194.826553,163.679398 
	C195.859589,162.497055 196.895233,161.316986 197.925323,160.132065 
	C219.680405,135.106750 241.400757,110.050987 263.266266,85.122543 
	C264.721405,83.463615 267.269867,81.793015 269.323242,81.776276 
	C296.484894,81.554855 323.648987,81.626549 350.812469,81.642555 
	C351.592743,81.643013 352.372894,81.836823 353.968231,82.048775 
	C352.398438,84.045921 351.238708,85.572372 350.026550,87.055984 
	C322.617493,120.602974 295.195862,154.139679 267.813751,187.708633 
	C266.699982,189.074036 265.948700,190.735107 264.696472,192.699005 
	C262.555817,194.792114 260.518341,196.255783 258.974854,198.126938 
	C246.196915,213.617615 233.451813,229.136307 220.826126,244.751129 
	C216.049149,250.659058 211.611588,256.841431 207.019287,262.898682 
z"/>
<path fill="#F6F7F7" opacity="1.000000" stroke="none" 
	d="
M207.161285,263.223389 
	C211.611588,256.841431 216.049149,250.659058 220.826126,244.751129 
	C233.451813,229.136307 246.196915,213.617615 258.974854,198.126938 
	C260.518341,196.255783 262.555817,194.792114 264.700958,193.060486 
	C272.479279,208.033463 279.986115,223.053757 287.350403,238.143600 
	C308.885773,282.270752 330.366364,326.424683 351.856903,370.573700 
	C352.631256,372.164520 353.284943,373.814087 354.255859,376.032715 
	C352.125763,376.032715 350.670898,376.032715 349.216064,376.032715 
	C323.052094,376.032715 296.887543,375.950989 270.724731,376.125122 
	C267.006165,376.149841 265.183319,374.899384 263.511597,371.663361 
	C244.869186,335.576569 226.064346,299.573669 207.161285,263.223389 
z"/>
</svg>